<?xml version="1.0" encoding="utf-8"?>
<!-- Generator: Adobe Illustrator 25.2.1, SVG Export Plug-In . SVG Version: 6.00 Build 0)  -->
<svg version="1.1" id="Layer_1" xmlns="http://www.w3.org/2000/svg" xmlns:xlink="http://www.w3.org/1999/xlink" x="0px" y="0px"
	 viewBox="0 0 512 512" style="enable-background:new 0 0 512 512;" xml:space="preserve">
<style type="text/css">
	.st0{fill:#FFFFFF;}
</style>
<g>
	<path class="st0" d="M448.19,192.68L256.91,88.35c-5.71-3.11-12.61-3.11-18.32,0L68.12,181.33c-13.29,7.25-13.29,26.34,0,33.58
		l74.42,40.59l96.05,52.39c5.71,3.11,12.61,3.11,18.32,0l96.03-52.39l38.68-21.1c12.75-6.95,28.29,2.27,28.29,16.79v4.31v76.51
		c0,10.56,8.56,19.13,19.13,19.13c10.56,0,19.13-8.56,19.13-19.13v-76.51v-46.03C458.16,202.48,454.33,196.04,448.19,192.68z"/>
	<path class="st0" d="M353.35,293.52l-96.44,52.63c-5.71,3.12-12.61,3.12-18.33,0l-96.44-52.63c-12.75-6.96-28.29,2.27-28.29,16.79
		v32.93c0,7,3.82,13.44,9.97,16.79l114.77,62.63c5.71,3.12,12.61,3.12,18.33,0l114.77-62.63c6.14-3.35,9.97-9.79,9.97-16.79v-32.93
		C381.64,295.79,366.1,286.56,353.35,293.52z"/>
</g>
</svg>
